<svg xmlns="http://www.w3.org/2000/svg" viewBox="0 0 256 256">
<defs><linearGradient id="bg" x1="0" y1="0" x2="1" y2="1"><stop offset="0%" stop-color="#161A22"/><stop offset="100%" stop-color="#0A0D12"/></linearGradient></defs>
<rect width="256" height="256" rx="44" fill="url(#bg)"/>
<rect width="256" height="256" rx="44" fill="none" stroke="rgba(255,255,255,0.08)" stroke-width="1.5"/>
<g transform="translate(20,30) scale(0.18)">
<!-- Flowing signature -->
<path fill="#A5BC39" d="m1175 856.1h-612.95c19.352-63.398 36.75-131.9 52.852-201.95 43-29.301 85.25-53.301 121.45-67.648 29.852-11.801 44.898-12.699 50.602-12.699 1.8008 0 2.6484 0.14844 2.75-0.050782 1.1016 2.8008 12.051 37.051-51 163.05-14.102 28.25-11.301 49 8.3516 61.75 30.648 19.852 44.949 2.5 98.148-62.398 36-43.898 96.199-117.45 126.05-137.65 31.75-21.398 50.051-22.199 53.949-19 7.25 5.6484 14.648 40.602-10.301 107.3-7.25 19.449 2.6484 41 22 48.301 19.551 7.3008 41-2.6992 48.25-22 33.352-89.301 28.398-159.5-13.551-192.55-20.551-16.148-66.25-35.648-142.35 15.801-17.949 12.148-39.301 32.898-63.199 59.199 2.1016-31.25-4.8984-54.898-20.801-72.199-40.801-44.551-112.9-16-136.5-6.6016-21.449 8.5-45.551 20.5-71.199 35.25 5.8516-27.102 11.551-54.102 17.25-80.852 2.25-10.648 4.4492-21.199 6.6992-31.699 62-32.551 114.7-69.398 140.75-104.2 107.65-143.5 95.25-221.9 78.301-255.8-15-30-44.352-47.898-78.5-47.898-52.25 0-104.2 38.949-135.55 101.65-24.551 49.102-46.699 142.75-70.801 255-88.199 41.645-191.1 74.293-245.7 74.293-20.699 0-37.5 16.801-37.5 37.5s16.801 37.5 37.5 37.5c55.398 0 142.3-23.648 226.35-58.352-8.8008 41.5-18.301 86-28.602 131.35-100.35 72.352-201.9 168.1-245.85 245.6h-276.9c-13.801 0-25 11.199-25 25 0 13.801 11.199 25 25 25h251.6c-30.102 66.102-71.551 180.85-29 239.25 11.648 16 32.949 33.102 70.5 33.102 8.1484 0 17.051-0.80078 26.75-2.6016 88.648-16.301 151.5-124.7 201.05-269.8h629.1c13.801 0 25-11.199 25-25s-11.199-24.949-25-24.949zm-441.45-689.35c20.648-41.301 50-60.148 68.449-60.148 7.5508 0 9.8008 3.1484 11.449 6.4492 9.1992 18.352 4.5 76.301-71.25 177.25-11.898 15.898-32.801 33.102-59.25 50.25 17.402-77 34.25-141.05 50.602-173.8zm-213.55 559.65c-11.449 44.75-23.648 88.551-36.699 129.7l-91.449 0.003906c31.199-40.703 77.148-86.703 128.15-129.7zm-188.7 375.75c-14.551 2.6992-21.75 0.85156-23.051-0.94922-13.75-18.898 6.1992-106.9 51.852-195.1l106.4 0.003906c-38.199 106.95-82.898 186.45-135.2 196.05z"/>
<!-- X mark -->
<path fill="#fff" opacity="0.7" d="m7.3008 742.7c4.8984 4.8516 11.301 7.3008 17.699 7.3008s12.801-2.4492 17.699-7.3008l57.301-57.348 57.301 57.301c4.8984 4.8984 11.301 7.3477 17.699 7.3477s12.801-2.4492 17.699-7.3008c9.75-9.75 9.75-25.602 0-35.352l-57.348-57.348 57.301-57.301c9.75-9.75 9.75-25.602 0-35.352s-25.602-9.75-35.352 0l-57.301 57.301-57.301-57.301c-9.75-9.75-25.602-9.75-35.352 0s-9.75 25.602 0 35.352l57.301 57.301-57.301 57.301c-9.7969 9.8008-9.7969 25.598-0.046875 35.398z"/>
</g>
</svg>